<?xml version="1.0" encoding="UTF-8" standalone="no"?>
<!-- Created with Inkscape (http://www.inkscape.org/) -->

<svg
   width="210mm"
   height="297mm"
   viewBox="0 0 210 297"
   version="1.1"
   id="svg1"
   sodipodi:docname="dicritical-knot.svg"
   inkscape:version="1.3.2 (091e20ef0f, 2023-11-25, custom)"
   xmlns:inkscape="http://www.inkscape.org/namespaces/inkscape"
   xmlns:sodipodi="http://sodipodi.sourceforge.net/DTD/sodipodi-0.dtd"
   xmlns="http://www.w3.org/2000/svg"
   xmlns:svg="http://www.w3.org/2000/svg">
  <sodipodi:namedview
     id="namedview1"
     pagecolor="#505050"
     bordercolor="#eeeeee"
     borderopacity="1"
     inkscape:showpageshadow="0"
     inkscape:pageopacity="0"
     inkscape:pagecheckerboard="0"
     inkscape:deskcolor="#505050"
     inkscape:document-units="mm"
     inkscape:zoom="2.3786088"
     inkscape:cx="176.99422"
     inkscape:cy="173.84111"
     inkscape:window-width="1916"
     inkscape:window-height="1176"
     inkscape:window-x="1920"
     inkscape:window-y="20"
     inkscape:window-maximized="1"
     inkscape:current-layer="layer1" />
  <defs
     id="defs1">
    <marker
       style="overflow:visible"
       id="Triangle"
       refX="0"
       refY="0"
       orient="auto-start-reverse"
       inkscape:stockid="Triangle arrow"
       markerWidth="1"
       markerHeight="1"
       viewBox="0 0 1 1"
       inkscape:isstock="true"
       inkscape:collect="always"
       preserveAspectRatio="xMidYMid">
      <path
         transform="scale(0.5)"
         style="fill:context-stroke;fill-rule:evenodd;stroke:context-stroke;stroke-width:1pt"
         d="M 5.77,0 -2.88,5 V -5 Z"
         id="path135" />
    </marker>
    <marker
       style="overflow:visible"
       id="marker3"
       refX="0"
       refY="0"
       orient="auto-start-reverse"
       inkscape:stockid="Triangle arrow"
       markerWidth="1"
       markerHeight="1"
       viewBox="0 0 1 1"
       inkscape:isstock="true"
       inkscape:collect="always"
       preserveAspectRatio="xMidYMid">
      <path
         transform="scale(0.5)"
         style="fill:context-stroke;fill-rule:evenodd;stroke:context-stroke;stroke-width:1pt"
         d="M 5.77,0 -2.88,5 V -5 Z"
         id="path3" />
    </marker>
  </defs>
  <g
     inkscape:label="Layer 1"
     inkscape:groupmode="layer"
     id="layer1">
    <path
       style="fill:none;stroke:#000000;stroke-width:0.264999;marker-end:url(#Triangle)"
       d="M 10.65727,33.869688 H 67.89464"
       id="path1" />
    <path
       style="fill:none;stroke:#000000;stroke-width:0.264999;marker-end:url(#marker3)"
       d="m 39.746469,58.122098 v -47.5638"
       id="path2" />
    <g
       inkscape:label=""
       transform="translate(40.950249,6.7006983)"
       id="g5">
      <g
         fill="#000000"
         fill-opacity="1"
         id="g3"
         transform="matrix(0.352778,0,0,0.352778,-0.896011,-0.701719)">
        <g
           id="use2"
           transform="translate(1.993,8.9110003)">
          <path
             d="m 2.859375,-6.8125 c 0,0 0,-0.109375 -0.125,-0.109375 -0.234375,0 -0.953125,0.078125 -1.21875,0.109375 -0.078125,0 -0.1875,0.015625 -0.1875,0.1875 0,0.125 0.09375,0.125 0.234375,0.125 0.484375,0 0.5,0.0625 0.5,0.171875 L 2.03125,-6.125 0.59375,-0.390625 c -0.046875,0.140625 -0.046875,0.15625 -0.046875,0.21875 0,0.234375 0.203125,0.28125 0.296875,0.28125 0.15625,0 0.3125,-0.125 0.359375,-0.265625 l 0.1875,-0.75 0.21875,-0.890625 C 1.671875,-2.03125 1.734375,-2.25 1.78125,-2.46875 1.796875,-2.53125 1.890625,-2.859375 1.890625,-2.921875 1.921875,-3.015625 2.234375,-3.5625 2.578125,-3.84375 2.796875,-4 3.09375,-4.1875 3.53125,-4.1875 c 0.421875,0 0.53125,0.34375 0.53125,0.703125 0,0.53125 -0.375,1.625 -0.609375,2.234375 C 3.375,-1.03125 3.3125,-0.90625 3.3125,-0.703125 c 0,0.46875 0.359375,0.8125 0.828125,0.8125 0.9375,0 1.296875,-1.453125 1.296875,-1.53125 0,-0.109375 -0.078125,-0.109375 -0.109375,-0.109375 -0.109375,0 -0.109375,0.03125 -0.15625,0.1875 -0.140625,0.53125 -0.46875,1.234375 -1.015625,1.234375 -0.171875,0 -0.234375,-0.09375 -0.234375,-0.328125 0,-0.25 0.078125,-0.484375 0.171875,-0.703125 0.15625,-0.4375 0.609375,-1.625 0.609375,-2.203125 0,-0.640625 -0.390625,-1.0625 -1.140625,-1.0625 -0.625,0 -1.109375,0.3125 -1.484375,0.765625 z m 0,0"
             id="path4" />
        </g>
      </g>
      <g
         fill="#000000"
         fill-opacity="1"
         id="g4"
         transform="matrix(0.352778,0,0,0.352778,-0.896011,-0.701719)">
        <g
           id="use3"
           transform="translate(7.7329998,10.405)">
          <path
             d="m 2.328125,-4.4375 c 0,-0.1875 0,-0.1875 -0.203125,-0.1875 -0.453125,0.4375 -1.078125,0.4375 -1.359375,0.4375 v 0.25 c 0.15625,0 0.625,0 1,-0.1875 v 3.546875 c 0,0.234375 0,0.328125 -0.6875,0.328125 H 0.8125 V 0 c 0.125,0 0.984375,-0.03125 1.234375,-0.03125 0.21875,0 1.09375,0.03125 1.25,0.03125 V -0.25 H 3.03125 c -0.703125,0 -0.703125,-0.09375 -0.703125,-0.328125 z m 0,0"
             id="path5" />
        </g>
      </g>
    </g>
    <g
       inkscape:label=""
       transform="translate(68.30736,36.244208)"
       id="g10">
      <g
         fill="#000000"
         fill-opacity="1"
         id="g7"
         transform="matrix(0.352778,0,0,0.352778,-0.896011,-0.701719)">
        <g
           id="g6"
           transform="translate(1.993,8.9110003)">
          <path
             d="m 2.859375,-6.8125 c 0,0 0,-0.109375 -0.125,-0.109375 -0.234375,0 -0.953125,0.078125 -1.21875,0.109375 -0.078125,0 -0.1875,0.015625 -0.1875,0.1875 0,0.125 0.09375,0.125 0.234375,0.125 0.484375,0 0.5,0.0625 0.5,0.171875 L 2.03125,-6.125 0.59375,-0.390625 c -0.046875,0.140625 -0.046875,0.15625 -0.046875,0.21875 0,0.234375 0.203125,0.28125 0.296875,0.28125 0.15625,0 0.3125,-0.125 0.359375,-0.265625 l 0.1875,-0.75 0.21875,-0.890625 C 1.671875,-2.03125 1.734375,-2.25 1.78125,-2.46875 1.796875,-2.53125 1.890625,-2.859375 1.890625,-2.921875 1.921875,-3.015625 2.234375,-3.5625 2.578125,-3.84375 2.796875,-4 3.09375,-4.1875 3.53125,-4.1875 c 0.421875,0 0.53125,0.34375 0.53125,0.703125 0,0.53125 -0.375,1.625 -0.609375,2.234375 C 3.375,-1.03125 3.3125,-0.90625 3.3125,-0.703125 c 0,0.46875 0.359375,0.8125 0.828125,0.8125 0.9375,0 1.296875,-1.453125 1.296875,-1.53125 0,-0.109375 -0.078125,-0.109375 -0.109375,-0.109375 -0.109375,0 -0.109375,0.03125 -0.15625,0.1875 -0.140625,0.53125 -0.46875,1.234375 -1.015625,1.234375 -0.171875,0 -0.234375,-0.09375 -0.234375,-0.328125 0,-0.25 0.078125,-0.484375 0.171875,-0.703125 0.15625,-0.4375 0.609375,-1.625 0.609375,-2.203125 0,-0.640625 -0.390625,-1.0625 -1.140625,-1.0625 -0.625,0 -1.109375,0.3125 -1.484375,0.765625 z m 0,0"
             id="path6" />
        </g>
      </g>
      <g
         fill="#000000"
         fill-opacity="1"
         id="g9"
         transform="matrix(0.352778,0,0,0.352778,-0.896011,-0.701719)">
        <g
           id="g8"
           transform="translate(7.7329998,10.405)">
          <path
             d="M 3.515625,-1.265625 H 3.28125 c -0.015625,0.15625 -0.09375,0.5625 -0.1875,0.625 C 3.046875,-0.59375 2.515625,-0.59375 2.40625,-0.59375 H 1.125 c 0.734375,-0.640625 0.984375,-0.84375 1.390625,-1.171875 0.515625,-0.40625 1,-0.84375 1,-1.5 0,-0.84375 -0.734375,-1.359375 -1.625,-1.359375 -0.859375,0 -1.453125,0.609375 -1.453125,1.25 0,0.34375 0.296875,0.390625 0.375,0.390625 0.15625,0 0.359375,-0.125 0.359375,-0.375 0,-0.125 -0.046875,-0.375 -0.40625,-0.375 C 0.984375,-4.21875 1.453125,-4.375 1.78125,-4.375 c 0.703125,0 1.0625,0.546875 1.0625,1.109375 0,0.609375 -0.4375,1.078125 -0.65625,1.328125 L 0.515625,-0.265625 C 0.4375,-0.203125 0.4375,-0.1875 0.4375,0 h 2.875 z m 0,0"
             id="path7" />
        </g>
      </g>
    </g>
    <path
       style="fill:none;stroke:#000000;stroke-width:0.264999"
       d="M 16.045385,56.335162 64.925093,10.31986"
       id="path8" />
    <path
       style="fill:none;stroke:#000000;stroke-width:0.264999"
       d="M 50.463658,55.403688 28.233028,10.509846"
       id="path9" />
    <path
       style="fill:none;stroke:#000000;stroke-width:0.264999"
       d="M 12.191718,39.989754 67.436941,27.809851"
       id="path10" />
    <path
       style="fill:none;stroke:#000000;stroke-width:0.264999"
       d="M 65.099495,44.09708 12.664573,22.423037"
       id="path11" />
    <path
       style="fill:none;stroke:#000000;stroke-width:0.264999"
       d="M 29.83743,57.959616 49.556132,10.062257"
       id="path12" />
  </g>
</svg>
